HIERARCHY
ROOT Hips
{
	OFFSET 0.0000 0.0000 0.0000
	CHANNELS 6 Xposition Yposition Zposition Zrotation Xrotation Yrotation
	JOINT Spine1
	{
		OFFSET -0.0137 5.0038 -0.0537
		CHANNELS 3 Zrotation Xrotation Yrotation
		JOINT Spine2
		{
			OFFSET -0.0000 7.1253 -0.0298
			CHANNELS 3 Zrotation Xrotation Yrotation
			JOINT Chest
			{
				OFFSET -0.0000 7.5501 -0.8160
				CHANNELS 3 Zrotation Xrotation Yrotation
				JOINT Neck1
				{
					OFFSET -0.1817 26.3113 -0.5533
					CHANNELS 3 Zrotation Xrotation Yrotation
					JOINT Neck2
					{
						OFFSET -0.0000 7.7094 2.3026
						CHANNELS 3 Zrotation Xrotation Yrotation
						JOINT Head
						{
							OFFSET -0.0000 6.1289 1.9537
							CHANNELS 3 Zrotation Xrotation Yrotation
							JOINT Jaw
							{
								OFFSET 0.0026 0.4756 3.0949
								CHANNELS 3 Zrotation Xrotation Yrotation
								End Site
								{
									OFFSET 0.0 1.0 0.0
								}
							}
							JOINT LeftEye
							{
								OFFSET 3.2064 5.3802 7.5869
								CHANNELS 3 Zrotation Xrotation Yrotation
								End Site
								{
									OFFSET 0.0 1.0 0.0
								}
							}
							JOINT RightEye
							{
								OFFSET -3.2224 5.3619 7.5582
								CHANNELS 3 Zrotation Xrotation Yrotation
								End Site
								{
									OFFSET 0.0 1.0 0.0
								}
							}
						}
					}
				}
				JOINT LeftShoulder
				{
					OFFSET 1.6217 23.2372 5.1134
					CHANNELS 3 Zrotation Xrotation Yrotation
					JOINT LeftArm
					{
						OFFSET 14.9198 0.0000 -5.5023
						CHANNELS 3 Zrotation Xrotation Yrotation
						JOINT LeftForeArm
						{
							OFFSET 28.7393 0.0000 -0.0026
							CHANNELS 3 Zrotation Xrotation Yrotation
							JOINT LeftHand
							{
								OFFSET 27.0940 -0.0000 0.0026
								CHANNELS 3 Zrotation Xrotation Yrotation
								JOINT LeftHandThumbEnd
								{
									OFFSET 12.2686 -3.2202 4.8331
									CHANNELS 3 Zrotation Xrotation Yrotation
									End Site
									{
										OFFSET 0.0 1.0 0.0
									}
								}
								JOINT LeftHandMiddleEnd
								{
									OFFSET 19.0120 -0.3129 -0.0340
									CHANNELS 3 Zrotation Xrotation Yrotation
									End Site
									{
										OFFSET 0.0 1.0 0.0
									}
								}
							}
						}
					}
				}
				JOINT RightShoulder
				{
					OFFSET -1.3801 23.1803 5.2142
					CHANNELS 3 Zrotation Xrotation Yrotation
					JOINT RightArm
					{
						OFFSET -15.0372 0.0000 -5.5456
						CHANNELS 3 Zrotation Xrotation Yrotation
						JOINT RightForeArm
						{
							OFFSET -28.7366 0.0000 -0.0026
							CHANNELS 3 Zrotation Xrotation Yrotation
							JOINT RightHand
							{
								OFFSET -27.1336 -0.0000 0.0026
								CHANNELS 3 Zrotation Xrotation Yrotation
								JOINT RightHandThumbEnd
								{
									OFFSET -12.2642 -3.2115 4.8040
									CHANNELS 3 Zrotation Xrotation Yrotation
									End Site
									{
										OFFSET 0.0 1.0 0.0
									}
								}
								JOINT RightHandMiddleEnd
								{
									OFFSET -19.0006 -0.3066 -0.0316
									CHANNELS 3 Zrotation Xrotation Yrotation
									End Site
									{
										OFFSET 0.0 1.0 0.0
									}
								}
							}
						}
					}
				}
			}
		}
	}
	JOINT LeftLeg
	{
		OFFSET 10.0432 -8.4345 2.5957
		CHANNELS 3 Zrotation Xrotation Yrotation
		JOINT LeftShin
		{
			OFFSET -0.0000 -43.2218 -0.8029
			CHANNELS 3 Zrotation Xrotation Yrotation
			JOINT LeftFoot
			{
				OFFSET 0.0000 -42.1551 -3.4815
				CHANNELS 3 Zrotation Xrotation Yrotation
				JOINT LeftToeBase
				{
					OFFSET 0.0000 -5.0595 13.2315
					CHANNELS 3 Zrotation Xrotation Yrotation
					End Site
					{
						OFFSET 0.0 1.0 0.0
					}
				}
			}
		}
	}
	JOINT RightLeg
	{
		OFFSET -10.0473 -8.2953 2.6203
		CHANNELS 3 Zrotation Xrotation Yrotation
		JOINT RightShin
		{
			OFFSET 0.0000 -43.3622 -0.8056
			CHANNELS 3 Zrotation Xrotation Yrotation
			JOINT RightFoot
			{
				OFFSET 0.0000 -42.1174 -3.4784
				CHANNELS 3 Zrotation Xrotation Yrotation
				JOINT RightToeBase
				{
					OFFSET -0.0000 -5.0796 13.2842
					CHANNELS 3 Zrotation Xrotation Yrotation
					End Site
					{
						OFFSET 0.0 1.0 0.0
					}
				}
			}
		}
	}
}
MOTION
Frames: 5
Frame Time: 0.033333
-16.6884 84.4235 63.0869 0.3072 -10.7632 11.2080 0.3484 12.5220 -0.4909 -0.1888 0.1222 -0.9850 2.5437 21.3752 -2.3831 16.6545 6.3389 -2.4431 -5.6072 -4.4130 -16.4165 1.3842 -21.0347 -19.9881 0.0494 -0.0138 -0.0455 0.6946 -10.6907 -3.8904 -0.5859 -10.6476 3.7450 10.6889 17.7125 -11.6797 -66.6575 -2.0801 -14.5598 -0.6759 0.2339 -96.1548 10.7620 24.2588 -6.8109 -15.0319 10.7657 16.1889 -59.8978 1.5864 2.3683 -0.9018 10.6215 17.9201 68.6831 -44.9172 -43.5289 1.2242 -0.3532 54.8119 -42.8905 -6.6102 2.0327 14.3583 7.4775 -16.0592 50.1132 -3.3957 -5.2362 26.4562 -1.1818 -8.2243 -0.0130 42.2960 -1.0595 -23.4283 -27.5352 -8.1931 1.6738 -3.4768 -1.9850 -30.3821 -28.6893 -6.5798 0.9354 41.6673 1.7700 23.3480 3.6931 -6.8836 -1.4249 -0.6830 0.9626
-16.5756 84.5673 63.1311 0.2336 -10.6089 11.1222 0.3423 12.4638 -0.4844 -0.1758 0.1114 -1.0219 2.6305 21.3460 -2.4351 16.7398 6.3536 -2.4505 -5.5777 -4.4185 -16.4166 1.3698 -21.0300 -19.9488 0.0474 -0.0159 -0.0416 0.6954 -10.6845 -3.8844 -0.5909 -10.6375 3.7478 10.9177 17.5546 -11.5719 -66.7958 -2.1175 -15.3926 -0.7367 0.1646 -97.1913 10.3538 24.0329 -7.0806 -14.9808 10.7528 16.2007 -59.9400 1.6017 2.4281 -0.7882 10.6278 17.7792 68.3544 -44.8638 -43.1007 1.1778 -0.3377 54.5067 -42.2527 -6.8115 1.9303 14.4003 7.4625 -16.0376 50.1733 -3.3922 -5.2306 26.5487 -1.2960 -7.8830 -0.0129 42.0845 -1.0462 -23.3709 -27.3271 -8.3249 1.6743 -3.4818 -1.9887 -30.2484 -28.5661 -6.7416 0.9218 41.0912 1.7457 23.3968 4.0475 -6.9068 -1.4248 -0.6584 0.9581
-16.4313 84.6719 63.1352 0.1521 -10.4893 10.9969 0.3328 12.4339 -0.4691 -0.1620 0.1038 -1.0640 2.7309 21.3817 -2.4369 16.8687 6.3692 -2.4860 -5.5672 -4.4000 -16.3144 1.3424 -21.0065 -19.9055 0.0439 -0.0165 -0.0274 0.6912 -10.6711 -3.8668 -0.5941 -10.6211 3.7611 11.1436 17.4013 -11.4937 -66.9803 -2.3346 -16.1629 -0.8495 0.1178 -98.2242 10.0503 23.6514 -7.3223 -14.9542 10.7045 16.1846 -59.9587 1.6076 2.4948 -0.5845 10.6409 17.7098 67.9706 -44.8519 -42.5629 1.1326 -0.3369 54.1089 -41.6065 -7.0256 1.7874 14.4205 7.4703 -16.0367 50.1763 -3.3936 -5.2408 26.6395 -1.4436 -7.5497 -0.0176 42.0264 -1.0327 -23.2760 -27.1518 -8.4692 1.6745 -3.5047 -1.9911 -30.1148 -28.4266 -6.8411 0.9037 40.5075 1.7188 23.4005 4.4370 -6.9538 -1.4243 -0.6313 0.9636
-16.2432 84.7479 63.0857 0.0643 -10.4139 10.8463 0.3269 12.4393 -0.4575 -0.1439 0.1116 -1.0990 2.8389 21.4526 -2.4197 16.9926 6.3871 -2.5069 -5.5404 -4.3844 -16.1833 1.3612 -20.9615 -19.8400 0.0386 -0.0167 -0.0107 0.6820 -10.6673 -3.8490 -0.5956 -10.6113 3.7794 11.3795 17.2339 -11.4539 -67.2045 -2.6523 -16.8962 -1.0042 0.0800 -99.2395 9.7921 22.9980 -7.6440 -14.9223 10.6700 16.1704 -59.9713 1.6212 2.5463 -0.3308 10.6771 17.7024 67.6558 -44.8724 -42.0012 1.0481 -0.3398 53.7131 -41.0302 -7.2349 1.7006 14.4520 7.4615 -16.0258 50.1476 -3.4274 -5.2350 26.7097 -1.5834 -7.2608 -0.0134 42.1029 -1.0247 -23.1671 -27.0698 -8.5826 1.6753 -3.5863 -2.0016 -30.0064 -28.2986 -6.9247 0.8880 39.9653 1.6955 23.3869 4.7982 -6.9610 -1.4225 -0.6231 0.9654
-16.0113 84.8028 63.0216 -0.0308 -10.3554 10.6320 0.3256 12.4626 -0.4582 -0.1277 0.1218 -1.1120 2.9548 21.5733 -2.3893 17.1068 6.3878 -2.5123 -5.5036 -4.3641 -16.0218 1.3948 -20.8918 -19.7299 0.0332 -0.0160 0.0035 0.6720 -10.6638 -3.8336 -0.5964 -10.6048 3.7938 11.5914 17.0812 -11.4276 -67.3845 -3.0681 -17.8109 -1.0760 0.1400 -100.2276 9.5655 21.9253 -7.9789 -14.8896 10.6285 16.1333 -59.9895 1.6423 2.5720 -0.0313 10.7298 17.7488 67.3936 -44.9644 -41.4108 0.9403 -0.3096 53.4037 -40.5419 -7.4463 1.6008 14.4455 7.4750 -16.0437 50.0962 -3.4450 -5.2322 26.7690 -1.7462 -6.9718 -0.0122 42.2744 -1.0096 -23.0445 -27.0322 -8.6542 1.6777 -3.6350 -2.0081 -29.8927 -28.2177 -6.9792 0.8958 39.4497 1.7119 23.3636 5.1573 -6.9489 -1.4208 -0.6167 0.9655
